<?xml version="1.0" encoding="UTF-8" standalone="no"?>
<!-- Created with Inkscape (http://www.inkscape.org/) -->

<svg
   xmlns:svg="http://www.w3.org/2000/svg"
   xmlns="http://www.w3.org/2000/svg"
   xmlns:xlink="http://www.w3.org/1999/xlink"
   version="1.1"
   width="174.35968"
   height="202.25"
   id="svg2">
  <defs
     id="defs4">
    <marker
       refX="0"
       refY="0"
       orient="auto"
       id="marker8196"
       style="overflow:visible">
      <path
         d="M 0,0 5,-5 -12.5,0 5,5 0,0 z"
         transform="matrix(-0.4,0,0,-0.4,-4,0)"
         id="path7943"
         style="fill:#000000;fill-opacity:1;fill-rule:evenodd;stroke:#000000;stroke-width:1pt;stroke-opacity:1" />
    </marker>
    <marker
       refX="0"
       refY="0"
       orient="auto"
       id="marker8193"
       style="overflow:visible">
      <path
         d="M 0,0 5,-5 -12.5,0 5,5 0,0 z"
         transform="matrix(-0.8,0,0,-0.8,-10,0)"
         id="path7937"
         style="fill:#000000;fill-opacity:1;fill-rule:evenodd;stroke:#000000;stroke-width:1pt;stroke-opacity:1" />
    </marker>
    <marker
       refX="0"
       refY="0"
       orient="auto"
       id="marker8190"
       style="overflow:visible">
      <path
         d="M 0,0 5,-5 -12.5,0 5,5 0,0 z"
         transform="matrix(0.8,0,0,0.8,10,0)"
         id="path7934"
         style="fill:#000000;fill-opacity:1;fill-rule:evenodd;stroke:#000000;stroke-width:1pt;stroke-opacity:1" />
    </marker>
    <marker
       refX="0"
       refY="0"
       orient="auto"
       id="Arrow2Send"
       style="overflow:visible">
      <path
         d="M 8.7185878,4.0337352 -2.2072895,0.01601326 8.7185884,-4.0017078 c -1.7454984,2.3720609 -1.7354408,5.6174519 -6e-7,8.035443 z"
         transform="matrix(-0.3,0,0,-0.3,0.69,0)"
         id="path4808"
         style="font-size:12px;fill-rule:evenodd;stroke-width:0.625;stroke-linejoin:round" />
    </marker>
    <marker
       refX="0"
       refY="0"
       orient="auto"
       id="Arrow1Lend"
       style="overflow:visible">
      <path
         d="M 0,0 5,-5 -12.5,0 5,5 0,0 z"
         transform="matrix(-0.8,0,0,-0.8,-10,0)"
         id="path4714"
         style="fill:#000000;fill-opacity:1;fill-rule:evenodd;stroke:#000000;stroke-width:1pt;stroke-opacity:1" />
    </marker>
    <marker
       refX="0"
       refY="0"
       orient="auto"
       id="Arrow1Lstart"
       style="overflow:visible">
      <path
         d="M 0,0 5,-5 -12.5,0 5,5 0,0 z"
         transform="matrix(0.8,0,0,0.8,10,0)"
         id="path4711"
         style="fill:#000000;fill-opacity:1;fill-rule:evenodd;stroke:#000000;stroke-width:1pt;stroke-opacity:1" />
    </marker>
    <marker
       refX="0"
       refY="0"
       orient="auto"
       id="Arrow1Mstart"
       style="overflow:visible">
      <path
         d="M 0,0 5,-5 -12.5,0 5,5 0,0 z"
         transform="matrix(0.4,0,0,0.4,4,0)"
         id="path3859"
         style="fill-rule:evenodd;stroke:#000000;stroke-width:1pt;marker-start:none" />
    </marker>
    <marker
       refX="0"
       refY="0"
       orient="auto"
       id="Arrow1Send"
       style="overflow:visible">
      <path
         d="M 0,0 5,-5 -12.5,0 5,5 0,0 z"
         transform="matrix(-0.2,0,0,-0.2,-1.2,0)"
         id="path3621"
         style="fill-rule:evenodd;stroke:#000000;stroke-width:1pt;marker-start:none" />
    </marker>
    <marker
       refX="0"
       refY="0"
       orient="auto"
       id="Arrow1Mend"
       style="overflow:visible">
      <path
         d="M 0,0 5,-5 -12.5,0 5,5 0,0 z"
         transform="matrix(-0.4,0,0,-0.4,-4,0)"
         id="path3615"
         style="fill-rule:evenodd;stroke:#000000;stroke-width:1pt;marker-start:none" />
    </marker>
    <clipPath
       id="pb4958c9e90">
      <rect
         width="225.34439"
         height="352.79999"
         x="73.125"
         y="44.099998"
         id="rect5390" />
    </clipPath>
    <clipPath
       id="clipPath5638">
      <rect
         width="225.34439"
         height="352.79999"
         x="73.125"
         y="44.099998"
         id="rect5640" />
    </clipPath>
    <clipPath
       id="clipPath5642">
      <rect
         width="225.34439"
         height="352.79999"
         x="73.125"
         y="44.099998"
         id="rect5644" />
    </clipPath>
    <clipPath
       id="clipPath5646">
      <rect
         width="225.34439"
         height="352.79999"
         x="73.125"
         y="44.099998"
         id="rect5648" />
    </clipPath>
    <defs
       id="defs5356">
      <path
         d="m 45.4062,27.9844 q 0,9.7656 -4.0312,15.125 -4.0156,5.375 -11.2969,5.375 -7.2187,0 -11.25,-5.375 -4.0312,-5.3594 -4.0312,-15.125 0,-9.7188 4.0312,-15.0938 4.0313,-5.37498 11.25,-5.37498 7.2813,0 11.2969,5.37498 4.0312,5.375 4.0312,15.0938 M 54.3906,6.78125 q 0,-13.95313 -6.2031,-20.76565 -6.1875,-6.8125 -18.9844,-6.8125 -4.7343,0 -8.9375,0.7031 -4.2031,0.7032 -8.1562,2.1719 l 0,8.7344 q 3.9531,-2.1406 7.8125,-3.1563 3.8593,-1.0312 7.8593,-1.0312 8.8438,0 13.2344,4.60938 4.3906,4.60937 4.3906,13.9375 l 0,4.45312 Q 42.625,4.78125 38.2812,2.39062 33.9375,0 27.875,0 17.8281,0 11.6719,7.65625 5.51562,15.3281 5.51562,27.9844 q 0,12.6875 6.15628,20.3437 Q 17.8281,56 27.875,56 q 6.0625,0 10.4062,-2.3906 4.3438,-2.3906 7.125,-7.2188 l 0,8.2969 8.9844,0 z"
         id="BitstreamVeraSans-Roman-67"
         style="stroke-linecap:butt;stroke-linejoin:round" />
      <path
         d="m 28.6094,0 -27.82815,72.9062 10.29685,0 23.1094,-61.375 23.1406,61.375 10.25,0 L 39.7969,0 z"
         id="BitstreamVeraSans-Roman-56"
         style="stroke-linecap:butt;stroke-linejoin:round" />
      <path
         d="m 56.2031,29.5938 0,-4.3907 -41.3125,0 q 0.5938,-9.2812 5.5938,-14.1406 5,-4.85938 13.9375,-4.85938 5.1719,0 10.0312,1.26563 4.8594,1.26563 9.6563,3.81245 l 0,-8.49995 q -4.8438,-2.046875 -9.9219,-3.125 -5.0781,-1.07813 -10.2969,-1.07813 -13.0937,0 -20.7344,7.60938 -7.64058,7.625 -7.64058,20.625 0,13.4219 7.24998,21.2969 Q 20.0156,56 32.3281,56 q 11.0313,0 17.4531,-7.1094 6.4219,-7.0937 6.4219,-19.2968 m -8.9843,2.6406 q -0.0938,7.3594 -4.125,11.75 -4.0313,4.4062 -10.6719,4.4062 -7.5157,0 -12.0313,-4.25 -4.5156,-4.25 -5.2031,-11.9687 z"
         id="BitstreamVeraSans-Roman-65"
         style="stroke-linecap:butt;stroke-linejoin:round" />
      <path
         d="m 41.1094,46.2969 q -1.5156,0.875 -3.2969,1.2812 Q 36.0312,48 33.8906,48 26.2656,48 22.1875,43.0469 18.1094,38.0938 18.1094,28.8125 l 0,-28.8125 -9.03128,0 0,54.6875 9.03128,0 0,-8.5 q 2.8437,4.9844 7.375,7.3906 Q 30.0312,56 36.5312,56 q 0.9219,0 2.0469,-0.125 1.125,-0.1094 2.4844,-0.3594 z"
         id="BitstreamVeraSans-Roman-72"
         style="stroke-linecap:butt;stroke-linejoin:round" />
      <path
         d="m 9.8125,72.9062 46.0937,0 0,-8.3124 -36.2343,0 0,-21.5782 34.7187,0 0,-8.2968 -34.7187,0 0,-26.42192 37.1093,0 L 56.7812,0 9.8125,0 z"
         id="BitstreamVeraSans-Roman-45"
         style="stroke-linecap:butt;stroke-linejoin:round" />
    </defs>
    <defs
       id="defs5179">
      <path
         d="m 54.8906,33.0156 0,-33.0156 -8.9844,0 0,32.7188 q 0,7.7656 -3.0312,11.6093 -3.0312,3.8594 -9.0781,3.8594 -7.2813,0 -11.4844,-4.6406 -4.2031,-4.625 -4.2031,-12.6407 l 0,-30.9062 -9.03128,0 0,54.6875 9.03128,0 0,-8.5 q 3.2344,4.9375 7.5937,7.375 Q 30.0781,56 35.7969,56 q 9.4219,0 14.25,-5.8281 4.8437,-5.8281 4.8437,-17.1563"
         id="BitstreamVeraSans-Roman-6e"
         style="stroke-linecap:butt;stroke-linejoin:round" />
      <path
         d="M 52,44.1875 Q 55.375,50.25 60.0625,53.125 64.75,56 71.0938,56 q 8.5468,0 13.1874,-5.9844 4.6407,-5.9687 4.6407,-17 l 0,-33.0156 -9.0313,0 0,32.7188 q 0,7.8593 -2.7968,11.6562 -2.7813,3.8125 -8.4844,3.8125 -6.9844,0 -11.0469,-4.6406 -4.0469,-4.625 -4.0469,-12.6407 l 0,-30.9062 -9.0312,0 0,32.7188 q 0,7.9062 -2.7813,11.6874 -2.7812,3.7813 -8.5937,3.7813 -6.8906,0 -10.9532,-4.6563 -4.0468,-4.6562 -4.0468,-12.625 l 0,-30.9062 -9.03128,0 0,54.6875 9.03128,0 0,-8.5 q 3.0781,5.0313 7.375,7.4219 Q 29.7812,56 35.6875,56 41.6562,56 45.8281,52.9688 50,49.9531 52,44.1875"
         id="BitstreamVeraSans-Roman-6d"
         style="stroke-linecap:butt;stroke-linejoin:round" />
      <path
         d="m 50.0938,10.5938 1.5,-0.68755 Q 46.2969,-1 40.5938,-1 34.5,-1 34.5,7.09375 l -0.2031,0 Q 28.7031,-1 21.7969,-1 16.9062,-1 15.5,1.79688 l -0.2031,0 0,-14.89068 q 0,-5.2031 -1.5938,-8.6093 l -8.2031,0 q 1.59375,3.7031 1.59375,8.5 l 0,58.2031 8.40625,0 0,-31.2031 q 0,-4.09378 2.6406,-6.5469 2.6563,-2.45312 5.9532,-2.45312 4.7031,0 8.1093,3.10937 1.3907,1.1875 1.8438,2.23435 0.4531,1.0625 0.4531,3.4532 l 0,31.4062 8.4062,0 0,-33.7031 q 0,-5.70315 2,-5.70315 1.5,0 2.5469,1 1.0469,1 2.6407,4.00005"
         id="STIXGeneral-Regular-3bc"
         style="stroke-linecap:butt;stroke-linejoin:round" />
      <path
         d="m 18.1094,8.20312 0,-29.00002 -9.03128,0 0,75.4844 9.03128,0 0,-8.2969 q 2.8437,4.875 7.1562,7.2344 Q 29.5938,56 35.5938,56 q 9.9687,0 16.1874,-7.9062 6.2344,-7.9063 6.2344,-20.7969 0,-12.8907 -6.2344,-20.81252 -6.2187,-7.90626 -16.1874,-7.90626 -6,0 -10.3282,2.375005 Q 20.9531,3.32812 18.1094,8.20312 M 48.6875,27.2969 q 0,9.9062 -4.0781,15.5469 -4.0782,5.6406 -11.2032,5.6406 -7.1406,0 -11.2187,-5.6406 -4.0781,-5.6407 -4.0781,-15.5469 0,-9.9063 4.0781,-15.5469 4.0781,-5.64062 11.2187,-5.64062 7.125,0 11.2032,5.64062 4.0781,5.6406 4.0781,15.5469"
         id="BitstreamVeraSans-Roman-70"
         style="stroke-linecap:butt;stroke-linejoin:round" />
      <path
         d="m 30.6094,48.3906 q -7.2188,0 -11.4219,-5.6406 -4.2031,-5.6406 -4.2031,-15.4531 0,-9.8125 4.1718,-15.4531 4.1876,-5.64068 11.4532,-5.64068 7.1875,0 11.375,5.65628 4.2031,5.6718 4.2031,15.4375 0,9.7187 -4.2031,15.4062 -4.1875,5.6875 -11.375,5.6875 m 0,7.6094 q 11.7187,0 18.4062,-7.625 6.7032,-7.6094 6.7032,-21.0781 0,-13.4219 -6.7032,-21.07815 -6.6875,-7.64063 -18.4062,-7.64063 -11.7656,0 -18.4375,7.64063 -6.65628,7.65625 -6.65628,21.07815 0,13.4687 6.65628,21.0781 Q 18.8438,56 30.6094,56"
         id="BitstreamVeraSans-Roman-6f"
         style="stroke-linecap:butt;stroke-linejoin:round" />
      <path
         d="M 32.1719,-5.07812 Q 28.375,-14.8438 24.75,-17.8125 q -3.6094,-2.9844 -9.6562,-2.9844 l -7.18755,0 0,7.5157 5.28125,0 q 3.7031,0 5.75,1.7656 2.0625,1.74998 4.5469,8.29685 L 25.0938,0.875 2.98438,54.6875 l 9.51562,0 17.0938,-42.7656 17.0937,42.7656 9.5156,0 z"
         id="BitstreamVeraSans-Roman-79"
         style="stroke-linecap:butt;stroke-linejoin:round" />
      <path
         d="m 18.3125,70.2188 0,-15.5313 18.5,0 0,-6.9844 -18.5,0 0,-29.6875 q 0,-6.6875 1.8281,-8.59372 1.8282,-1.90626 7.4532,-1.90626 l 9.2187,0 0,-7.51562 -9.2187,0 Q 17.1875,0 13.2344,3.875 9.28125,7.76562 9.28125,18.0156 l 0,29.6875 -6.59375,0 0,6.9844 6.59375,0 0,15.5313 z"
         id="BitstreamVeraSans-Roman-74"
         style="stroke-linecap:butt;stroke-linejoin:round" />
      <path
         d="m 44.2812,53.0781 0,-8.5 q -3.7968,1.9531 -7.9062,2.9219 -4.0938,0.9844 -8.5,0.9844 -6.6875,0 -10.0312,-2.0469 Q 14.5,44.3906 14.5,40.2812 q 0,-3.125 2.3906,-4.9062 2.3906,-1.7812 9.625,-3.3906 l 3.0782,-0.6875 q 9.5624,-2.0469 13.5937,-5.7813 4.0313,-3.7344 4.0313,-10.4218 0,-7.62505 -6.0313,-12.07818 -6.0313,-4.4375 -16.5781,-4.4375 -4.3906,0 -9.1563,0.85938 Q 10.6875,0.296875 5.42188,2 l 0,9.2812 q 4.98432,-2.5937 9.81252,-3.89058 4.8281,-1.28124 9.5781,-1.28124 6.3437,0 9.75,2.17187 3.4219,2.17185 3.4219,6.12495 0,3.6563 -2.4688,5.6094 -2.4531,1.9532 -10.8125,3.7656 l -3.125,0.7344 q -8.3437,1.75 -12.06248,5.3906 -3.70312,3.6407 -3.70312,9.9844 0,7.7188 5.4687,11.9063 Q 16.75,56 26.8125,56 q 4.9687,0 9.3594,-0.7344 4.4062,-0.7187 8.1093,-2.1875"
         id="BitstreamVeraSans-Roman-73"
         style="stroke-linecap:butt;stroke-linejoin:round" />
      <path
         d="m 8.01562,75.875 7.81248,0 Q 23.1406,64.3594 26.7812,53.3125 30.4219,42.2812 30.4219,31.3906 30.4219,20.4531 26.7812,9.375 23.1406,-1.70312 15.8281,-13.1875 l -7.81248,0 Q 14.5,-2 17.7031,9.0625 q 3.2031,11.0625 3.2031,22.3281 0,11.2813 -3.2031,22.2656 -3.2031,11 -9.68748,22.2188"
         id="BitstreamVeraSans-Roman-29"
         style="stroke-linecap:butt;stroke-linejoin:round" />
      <path
         d="M 31,75.875 Q 24.4688,64.6562 21.2812,53.6562 18.1094,42.6719 18.1094,31.3906 18.1094,20.125 21.3125,9.0625 24.5156,-2 31,-13.1875 l -7.8125,0 Q 15.875,-1.70312 12.2344,9.375 8.59375,20.4531 8.59375,31.3906 q 0,10.8906 3.60935,21.9219 3.625,11.0469 10.9844,22.5625 z"
         id="BitstreamVeraSans-Roman-28"
         style="stroke-linecap:butt;stroke-linejoin:round" />
      <path
         d="m 9.42188,54.6875 8.98432,0 0,-54.6875 -8.98432,0 z m 0,21.2969 8.98432,0 0,-11.3906 -8.98432,0 z"
         id="BitstreamVeraSans-Roman-69"
         style="stroke-linecap:butt;stroke-linejoin:round" />
    </defs>
    <defs
       id="defs5239">
      <path
         d="m 10.5938,35.5 62.5937,0 0,-8.2969 -62.5937,0 z"
         id="BitstreamVeraSans-Roman-2212"
         style="stroke-linecap:butt;stroke-linejoin:round" />
      <path
         d="M 10.6875,12.4062 21,12.4062 21,0 10.6875,0 z"
         id="BitstreamVeraSans-Roman-2e"
         style="stroke-linecap:butt;stroke-linejoin:round" />
    </defs>
    <marker
       refX="0"
       refY="0"
       orient="auto"
       id="Arrow1Mend-6"
       style="overflow:visible">
      <path
         d="M 0,0 5,-5 -12.5,0 5,5 0,0 z"
         transform="matrix(-0.4,0,0,-0.4,-4,0)"
         id="path3615-0"
         style="fill-rule:evenodd;stroke:#000000;stroke-width:1pt;marker-start:none" />
    </marker>
    <clipPath
       id="pb4958c9e90-9">
      <rect
         width="225.34439"
         height="352.79999"
         x="73.125"
         y="44.099998"
         id="rect5390-4" />
    </clipPath>
    <clipPath
       id="pb4958c9e90-2">
      <rect
         width="225.34439"
         height="352.79999"
         x="73.125"
         y="44.099998"
         id="rect5390-7" />
    </clipPath>
    <marker
       refX="0"
       refY="0"
       orient="auto"
       id="Arrow1Mend-3"
       style="overflow:visible">
      <path
         d="M 0,0 5,-5 -12.5,0 5,5 0,0 z"
         transform="matrix(-0.4,0,0,-0.4,-4,0)"
         id="path3615-2"
         style="fill-rule:evenodd;stroke:#000000;stroke-width:1pt;marker-start:none" />
    </marker>
    <marker
       refX="0"
       refY="0"
       orient="auto"
       id="Arrow2Mstart"
       style="overflow:visible">
      <path
         d="M 8.7185878,4.0337352 -2.2072895,0.01601326 8.7185884,-4.0017078 c -1.7454984,2.3720609 -1.7354408,5.6174519 -6e-7,8.035443 z"
         transform="scale(0.6,0.6)"
         id="path4430"
         style="font-size:12px;fill-rule:evenodd;stroke-width:0.625;stroke-linejoin:round" />
    </marker>
    <marker
       refX="0"
       refY="0"
       orient="auto"
       id="marker8209"
       style="overflow:visible">
      <path
         d="M 8.7185878,4.0337352 -2.2072895,0.01601326 8.7185884,-4.0017078 c -1.7454984,2.3720609 -1.7354408,5.6174519 -6e-7,8.035443 z"
         transform="scale(0.6,0.6)"
         id="path8211"
         style="font-size:12px;fill-rule:evenodd;stroke-width:0.625;stroke-linejoin:round" />
    </marker>
    <marker
       refX="0"
       refY="0"
       orient="auto"
       id="Arrow1Send-5"
       style="overflow:visible">
      <path
         d="M 0,0 5,-5 -12.5,0 5,5 0,0 z"
         transform="matrix(-0.2,0,0,-0.2,-1.2,0)"
         id="path3621-3"
         style="fill-rule:evenodd;stroke:#000000;stroke-width:1pt;marker-start:none" />
    </marker>
    <marker
       refX="0"
       refY="0"
       orient="auto"
       id="Arrow2Mend-3-2"
       style="overflow:visible">
      <path
         d="M 8.7185878,4.0337352 -2.2072895,0.01601326 8.7185884,-4.0017078 c -1.7454984,2.3720609 -1.7354408,5.6174519 -6e-7,8.035443 z"
         transform="scale(-0.6,-0.6)"
         id="path4433-3-7"
         style="font-size:12px;fill-rule:evenodd;stroke-width:0.625;stroke-linejoin:round" />
    </marker>
    <marker
       refX="0"
       refY="0"
       orient="auto"
       id="Arrow2Mend-6"
       style="overflow:visible">
      <path
         d="M 8.7185878,4.0337352 -2.2072895,0.01601326 8.7185884,-4.0017078 c -1.7454984,2.3720609 -1.7354408,5.6174519 -6e-7,8.035443 z"
         transform="scale(-0.6,-0.6)"
         id="path4433-06"
         style="font-size:12px;fill-rule:evenodd;stroke-width:0.625;stroke-linejoin:round" />
    </marker>
    <marker
       refX="0"
       refY="0"
       orient="auto"
       id="marker5390-2"
       style="overflow:visible">
      <path
         d="M 8.7185878,4.0337352 -2.2072895,0.01601326 8.7185884,-4.0017078 c -1.7454984,2.3720609 -1.7354408,5.6174519 -6e-7,8.035443 z"
         transform="scale(-0.6,-0.6)"
         id="path5392-9"
         style="fill:#000000;fill-opacity:1;fill-rule:evenodd;stroke:#000000;stroke-width:0.625;stroke-linejoin:round;stroke-opacity:1" />
    </marker>
    <marker
       refX="0"
       refY="0"
       orient="auto"
       id="Arrow2Mend-5"
       style="overflow:visible">
      <path
         d="M 8.7185878,4.0337352 -2.2072895,0.01601326 8.7185884,-4.0017078 c -1.7454984,2.3720609 -1.7354408,5.6174519 -6e-7,8.035443 z"
         transform="scale(-0.6,-0.6)"
         id="path4433-35"
         style="font-size:12px;fill-rule:evenodd;stroke-width:0.625;stroke-linejoin:round" />
    </marker>
    <clipPath
       id="p163f6fb47a">
      <rect
         width="160.53389"
         height="155.18571"
         x="73.125"
         y="241.71428"
         id="rect7759" />
    </clipPath>
    <clipPath
       id="pb4958c9e90-3-3">
      <rect
         width="225.34439"
         height="352.79999"
         x="73.125"
         y="44.099998"
         id="rect5390-69-6" />
    </clipPath>
    <clipPath
       id="clipPath8674">
      <rect
         width="160.53389"
         height="155.18571"
         x="73.125"
         y="241.71428"
         id="rect8676" />
    </clipPath>
    <clipPath
       id="clipPath8678">
      <rect
         width="160.53389"
         height="155.18571"
         x="73.125"
         y="241.71428"
         id="rect8680" />
    </clipPath>
  </defs>
  <g
     transform="translate(26.448242,-766.33887)"
     id="layer1">
    <rect
       width="100"
       height="30"
       x="28.551758"
       y="847.36218"
       id="rect7926"
       style="color:#000000;fill:#acd1ed;fill-opacity:1;fill-rule:nonzero;stroke:none;stroke-width:1;marker:none;visibility:visible;display:inline;overflow:visible;enable-background:accumulate" />
    <rect
       width="100"
       height="159.99998"
       x="29.436796"
       y="782.36218"
       id="rect2820"
       style="color:#000000;fill:none;stroke:#000000;stroke-width:1.63663411;stroke-linecap:square;stroke-linejoin:miter;stroke-miterlimit:4;stroke-opacity:1;stroke-dasharray:none;stroke-dashoffset:0;marker:none;visibility:visible;display:inline;overflow:visible;enable-background:accumulate" />
    <path
       d="m 29.436795,862.3622 100.000005,0"
       id="path3597"
       style="fill:none;stroke:#000000;stroke-width:1;stroke-linecap:butt;stroke-linejoin:miter;stroke-miterlimit:4;stroke-opacity:1;stroke-dasharray:3, 3;stroke-dashoffset:0" />
    <path
       d="m 29.034504,953.3622 114.999976,0"
       id="path3601"
       style="fill:none;stroke:#000000;stroke-width:1px;stroke-linecap:butt;stroke-linejoin:miter;stroke-opacity:1;marker-end:url(#Arrow1Mend)" />
    <path
       d="m 29.034504,950.3622 0,6"
       id="path4051"
       style="fill:none;stroke:#000000;stroke-width:1px;stroke-linecap:butt;stroke-linejoin:miter;stroke-opacity:1" />
    <path
       d="M 19,942.3622 19,767.58887"
       id="path4053"
       style="fill:none;stroke:#000000;stroke-width:1px;stroke-linecap:butt;stroke-linejoin:miter;stroke-opacity:1;marker-end:url(#Arrow1Mend)" />
    <path
       d="m 16,942.3622 6,0"
       id="path4055"
       style="fill:none;stroke:#000000;stroke-width:1px;stroke-linecap:butt;stroke-linejoin:miter;stroke-opacity:1" />
    <path
       d="m 129.03448,950.3622 0,6"
       id="path4051-1"
       style="fill:none;stroke:#000000;stroke-width:1px;stroke-linecap:butt;stroke-linejoin:miter;stroke-opacity:1" />
    <path
       d="m 16,782.3622 6,0"
       id="path4055-7"
       style="fill:none;stroke:#000000;stroke-width:1px;stroke-linecap:butt;stroke-linejoin:miter;stroke-opacity:1" />
    <path
       d="m 16,862.3622 6,0"
       id="path4055-7-3"
       style="fill:none;stroke:#000000;stroke-width:1px;stroke-linecap:butt;stroke-linejoin:miter;stroke-opacity:1" />
    <text
       x="25.846186"
       y="966.50879"
       id="text4307"
       xml:space="preserve"
       style="font-size:10px;font-style:normal;font-weight:normal;fill:#000000;fill-opacity:1;stroke:none;font-family:Bitstream Vera Sans"><tspan
         x="25.846186"
         y="966.50879"
         id="tspan4309">0</tspan></text>
    <text
       x="109.17608"
       y="966.50879"
       id="text4311"
       xml:space="preserve"
       style="font-size:10px;font-style:normal;font-weight:normal;fill:#000000;fill-opacity:1;stroke:none;font-family:Bitstream Vera Sans"><tspan
         x="109.17608"
         y="966.50879"
         id="tspan4313">L=3 µm</tspan></text>
    <text
       x="-27"
       y="785.12097"
       id="text4311-1"
       xml:space="preserve"
       style="font-size:10px;font-style:normal;font-weight:normal;fill:#000000;fill-opacity:1;stroke:none;font-family:Bitstream Vera Sans"><tspan
         x="-27"
         y="785.12097"
         id="tspan4313-6">d=5 µm</tspan></text>
    <text
       x="6.8378906"
       y="942.72058"
       id="text4342"
       xml:space="preserve"
       style="font-size:10px;font-style:normal;font-weight:normal;fill:#000000;fill-opacity:1;stroke:none;font-family:Bitstream Vera Sans"><tspan
         x="6.8378906"
         y="942.72058"
         id="tspan4344">0</tspan></text>
    <text
       x="-21.804688"
       y="865.03308"
       id="text4311-0"
       xml:space="preserve"
       style="font-size:10px;font-style:normal;font-weight:normal;fill:#000000;fill-opacity:1;stroke:none;font-family:Bitstream Vera Sans"><tspan
         x="-21.804688"
         y="865.03308"
         id="tspan4313-5">2.5 µm</tspan></text>
    <g
       transform="translate(-47.465405,172.84938)"
       id="g4365">
      <text
         x="22.714287"
         y="746.50507"
         id="text4357"
         xml:space="preserve"
         style="font-size:10px;font-style:normal;font-weight:normal;fill:#000000;fill-opacity:1;stroke:none;font-family:Bitstream Vera Sans"><tspan
           x="22.714287"
           y="746.50507"
           id="tspan4359">n -layer</tspan></text>
      <text
         x="25.714287"
         y="-27.249718"
         transform="translate(0,768.89763)"
         id="text4361"
         xml:space="preserve"
         style="font-size:10px;font-style:normal;font-weight:normal;fill:#000000;fill-opacity:1;stroke:none;font-family:Bitstream Vera Sans"><tspan
           x="25.714287"
           y="-27.249718"
           id="tspan4363">+</tspan></text>
    </g>
    <path
       d="m 16.302902,916.49731 10.965494,0"
       id="path4371"
       style="fill:none;stroke:#000000;stroke-width:1px;stroke-linecap:butt;stroke-linejoin:miter;stroke-opacity:1;marker-end:url(#Arrow1Send)" />
    <text
       x="92.651085"
       y="792.71936"
       id="text4561"
       xml:space="preserve"
       style="font-size:10px;font-style:normal;font-weight:normal;fill:#000000;fill-opacity:1;stroke:none;font-family:Bitstream Vera Sans"><tspan
         x="92.651085"
         y="792.71936"
         id="tspan4563">p-type</tspan></text>
    <text
       x="48.094662"
       y="844.07483"
       id="text4565"
       xml:space="preserve"
       style="font-size:10px;font-style:normal;font-weight:normal;fill:#000000;fill-opacity:1;stroke:none;font-family:Bitstream Vera Sans"><tspan
         x="48.094662"
         y="844.07483"
         id="tspan4567">grain boundary</tspan></text>
    <text
       x="137.44568"
       y="950.35712"
       id="text4569"
       xml:space="preserve"
       style="font-size:10px;font-style:normal;font-weight:normal;fill:#000000;fill-opacity:1;stroke:none;font-family:Bitstream Vera Sans"><tspan
         x="137.44568"
         y="950.35712"
         id="tspan4571">x</tspan></text>
    <text
       x="23.989847"
       y="772.46881"
       id="text4573"
       xml:space="preserve"
       style="font-size:10px;font-style:normal;font-weight:normal;fill:#000000;fill-opacity:1;stroke:none;font-family:Bitstream Vera Sans"><tspan
         x="23.989847"
         y="772.46881"
         id="tspan4575">y</tspan></text>
    <text
       x="281.07144"
       y="148.39285"
       transform="translate(-30.448242,766.33887)"
       id="text7319"
       xml:space="preserve"
       style="font-size:10px;font-style:normal;font-weight:normal;fill:#000000;fill-opacity:1;stroke:none;font-family:Bitstream Vera Sans"><tspan
         x="281.07144"
         y="148.39285"
         id="tspan7321" /></text>
    <path
       d="m 34.436795,782.3622 0,160"
       id="path3599"
       style="fill:none;stroke:#000000;stroke-width:1px;stroke-linecap:butt;stroke-linejoin:miter;stroke-opacity:1" />
    <path
       d="m 84.991133,862.05058 c 0,-10.0003 0,-9.5003 0,-9.5003"
       id="path3591-4"
       style="fill:none;stroke:#000000;stroke-width:1;stroke-linecap:butt;stroke-linejoin:miter;stroke-miterlimit:4;stroke-opacity:1;stroke-dasharray:none;marker-start:url(#Arrow2Mstart);marker-end:none" />
    <path
       d="m 84.991133,877.83472 c 0,10 0,8.8371 0,8.8371"
       id="path3591-4-0"
       style="fill:none;stroke:#000000;stroke-width:1;stroke-linecap:butt;stroke-linejoin:miter;stroke-miterlimit:4;stroke-opacity:1;stroke-dasharray:none;marker-start:url(#Arrow2Mstart);marker-end:none" />
    <path
       d="m 84.991133,852.07868 c 0,9.9999 0,29.9999 0,29.9999"
       id="path3591"
       style="fill:none;stroke:#000000;stroke-width:1;stroke-linecap:butt;stroke-linejoin:miter;stroke-miterlimit:4;stroke-opacity:1;stroke-dasharray:none;marker-end:none" />
    <text
       x="93.551758"
       y="888.58887"
       id="text8234"
       xml:space="preserve"
       style="font-size:40px;font-style:normal;font-variant:normal;font-weight:normal;font-stretch:normal;text-align:start;line-height:125%;letter-spacing:0px;word-spacing:0px;writing-mode:lr-tb;text-anchor:start;fill:#000000;fill-opacity:1;stroke:none;font-family:Sans;-inkscape-font-specification:Sans"><tspan
         x="93.551758"
         y="888.58887"
         id="tspan8236"
         style="font-size:10px">W<tspan
   id="tspan8238"
   style="font-size:65.00091553%">GB</tspan></tspan></text>
    <text
       x="52.639126"
       y="935.78839"
       id="text4561-6"
       xml:space="preserve"
       style="font-size:10px;font-style:normal;font-weight:normal;fill:#000000;fill-opacity:1;stroke:none;font-family:Bitstream Vera Sans"><tspan
         x="52.639126"
         y="935.78839"
         id="tspan4563-7">junction</tspan></text>
    <path
       d="m 50.828324,932.4628 -10.965494,0"
       id="path4371-5"
       style="fill:none;stroke:#000000;stroke-width:1px;stroke-linecap:butt;stroke-linejoin:miter;stroke-opacity:1;marker-end:url(#Arrow1Send-5)" />
    <g
       transform="matrix(0.09625,0,0,-0.09625,412.23583,976.26544)"
       id="g7576"
       style="stroke-linecap:butt;stroke-linejoin:round">
      <use
         transform="translate(0,0.015625)"
         id="use7578"
         style="stroke-linecap:butt;stroke-linejoin:round"
         x="0"
         y="0"
         width="369.7424"
         height="205.59766"
         xlink:href="#BitstreamVeraSans-Roman-70-8" />
      <use
         transform="translate(63.476562,0.015625)"
         id="use7580"
         style="stroke-linecap:butt;stroke-linejoin:round"
         x="0"
         y="0"
         width="369.7424"
         height="205.59766"
         xlink:href="#BitstreamVeraSans-Roman-6f-5" />
      <use
         transform="translate(124.6582,0.015625)"
         id="use7582"
         style="stroke-linecap:butt;stroke-linejoin:round"
         x="0"
         y="0"
         width="369.7424"
         height="205.59766"
         xlink:href="#BitstreamVeraSans-Roman-73-4" />
      <use
         transform="translate(176.75781,0.015625)"
         id="use7584"
         style="stroke-linecap:butt;stroke-linejoin:round"
         x="0"
         y="0"
         width="369.7424"
         height="205.59766"
         xlink:href="#BitstreamVeraSans-Roman-69-25" />
      <use
         transform="translate(204.54102,0.015625)"
         id="use7586"
         style="stroke-linecap:butt;stroke-linejoin:round"
         x="0"
         y="0"
         width="369.7424"
         height="205.59766"
         xlink:href="#BitstreamVeraSans-Roman-74-0" />
      <use
         transform="translate(243.75,0.015625)"
         id="use7588"
         style="stroke-linecap:butt;stroke-linejoin:round"
         x="0"
         y="0"
         width="369.7424"
         height="205.59766"
         xlink:href="#BitstreamVeraSans-Roman-69-25" />
      <use
         transform="translate(271.5332,0.015625)"
         id="use7590"
         style="stroke-linecap:butt;stroke-linejoin:round"
         x="0"
         y="0"
         width="369.7424"
         height="205.59766"
         xlink:href="#BitstreamVeraSans-Roman-6f-5" />
      <use
         transform="translate(332.71484,0.015625)"
         id="use7592"
         style="stroke-linecap:butt;stroke-linejoin:round"
         x="0"
         y="0"
         width="369.7424"
         height="205.59766"
         xlink:href="#BitstreamVeraSans-Roman-6e-4" />
      <use
         transform="translate(425.31738,0.015625)"
         id="use7594"
         style="stroke-linecap:butt;stroke-linejoin:round"
         x="0"
         y="0"
         width="369.7424"
         height="205.59766"
         xlink:href="#BitstreamVeraSans-Roman-79-3" />
      <use
         transform="translate(513.7207,0.015625)"
         id="use7596"
         style="stroke-linecap:butt;stroke-linejoin:round"
         x="0"
         y="0"
         width="369.7424"
         height="205.59766"
         xlink:href="#BitstreamVeraSans-Roman-28-7" />
      <use
         transform="translate(552.73437,0.015625)"
         id="use7598"
         style="stroke-linecap:butt;stroke-linejoin:round"
         x="0"
         y="0"
         width="369.7424"
         height="205.59766"
         xlink:href="#STIXGeneral-Regular-3bc-7" />
      <use
         transform="translate(605.53436,0.015625)"
         id="use7600"
         style="stroke-linecap:butt;stroke-linejoin:round"
         x="0"
         y="0"
         width="369.7424"
         height="205.59766"
         xlink:href="#BitstreamVeraSans-Roman-6d-74" />
      <use
         transform="translate(702.94647,0.015625)"
         id="use7602"
         style="stroke-linecap:butt;stroke-linejoin:round"
         x="0"
         y="0"
         width="369.7424"
         height="205.59766"
         xlink:href="#BitstreamVeraSans-Roman-29-4" />
    </g>
    <g
       transform="matrix(0,-0.09625,-0.09625,0,356.19835,940.91274)"
       id="g7726"
       style="stroke-linecap:butt;stroke-linejoin:round">
      <use
         transform="translate(0,0.125)"
         id="use7728"
         style="stroke-linecap:butt;stroke-linejoin:round"
         x="0"
         y="0"
         width="369.7424"
         height="205.59766"
         xlink:href="#BitstreamVeraSans-Roman-65-4" />
      <use
         transform="translate(61.523437,0.125)"
         id="use7730"
         style="stroke-linecap:butt;stroke-linejoin:round"
         x="0"
         y="0"
         width="369.7424"
         height="205.59766"
         xlink:href="#BitstreamVeraSans-Roman-6e-4" />
      <use
         transform="translate(124.90234,0.125)"
         id="use7732"
         style="stroke-linecap:butt;stroke-linejoin:round"
         x="0"
         y="0"
         width="369.7424"
         height="205.59766"
         xlink:href="#BitstreamVeraSans-Roman-65-4" />
      <use
         transform="translate(186.42578,0.125)"
         id="use7734"
         style="stroke-linecap:butt;stroke-linejoin:round"
         x="0"
         y="0"
         width="369.7424"
         height="205.59766"
         xlink:href="#BitstreamVeraSans-Roman-72-95" />
      <use
         transform="translate(227.53906,0.125)"
         id="use7736"
         style="stroke-linecap:butt;stroke-linejoin:round"
         x="0"
         y="0"
         width="369.7424"
         height="205.59766"
         xlink:href="#BitstreamVeraSans-Roman-67-66" />
      <use
         transform="translate(291.01562,0.125)"
         id="use7738"
         style="stroke-linecap:butt;stroke-linejoin:round"
         x="0"
         y="0"
         width="369.7424"
         height="205.59766"
         xlink:href="#BitstreamVeraSans-Roman-79-3" />
      <use
         transform="translate(379.41895,0.125)"
         id="use7740"
         style="stroke-linecap:butt;stroke-linejoin:round"
         x="0"
         y="0"
         width="369.7424"
         height="205.59766"
         xlink:href="#BitstreamVeraSans-Roman-45-4" />
      <use
         transform="translate(442.60254,0.125)"
         id="use7742"
         style="stroke-linecap:butt;stroke-linejoin:round"
         x="0"
         y="0"
         width="369.7424"
         height="205.59766"
         xlink:href="#BitstreamVeraSans-Roman-2d-8" />
      <use
         transform="translate(478.68652,0.125)"
         id="use7744"
         style="stroke-linecap:butt;stroke-linejoin:round"
         x="0"
         y="0"
         width="369.7424"
         height="205.59766"
         xlink:href="#BitstreamVeraSans-Roman-45-4" />
      <use
         transform="matrix(0.7,0,0,0.7,541.87012,-31.375)"
         id="use7746"
         style="stroke-linecap:butt;stroke-linejoin:round"
         x="0"
         y="0"
         width="369.7424"
         height="205.59766"
         xlink:href="#BitstreamVeraSans-Roman-56-0" />
      <use
         transform="translate(639.50195,0.125)"
         id="use7748"
         style="stroke-linecap:butt;stroke-linejoin:round"
         x="0"
         y="0"
         width="369.7424"
         height="205.59766"
         xlink:href="#BitstreamVeraSans-Roman-28-7" />
      <use
         transform="translate(678.51562,0.125)"
         id="use7750"
         style="stroke-linecap:butt;stroke-linejoin:round"
         x="0"
         y="0"
         width="369.7424"
         height="205.59766"
         xlink:href="#BitstreamVeraSans-Roman-65-4" />
      <use
         transform="translate(740.03906,0.125)"
         id="use7752"
         style="stroke-linecap:butt;stroke-linejoin:round"
         x="0"
         y="0"
         width="369.7424"
         height="205.59766"
         xlink:href="#BitstreamVeraSans-Roman-56-0" />
      <use
         transform="translate(808.44727,0.125)"
         id="use7754"
         style="stroke-linecap:butt;stroke-linejoin:round"
         x="0"
         y="0"
         width="369.7424"
         height="205.59766"
         xlink:href="#BitstreamVeraSans-Roman-29-4" />
    </g>
  </g>
</svg>
