<?xml version="1.0" encoding="UTF-8" standalone="no"?>
<!-- Created with Inkscape (http://www.inkscape.org/) -->

<svg
   xmlns:dc="http://purl.org/dc/elements/1.1/"
   xmlns:cc="http://creativecommons.org/ns#"
   xmlns:rdf="http://www.w3.org/1999/02/22-rdf-syntax-ns#"
   xmlns:svg="http://www.w3.org/2000/svg"
   xmlns="http://www.w3.org/2000/svg"
   xmlns:xlink="http://www.w3.org/1999/xlink"
   xmlns:sodipodi="http://sodipodi.sourceforge.net/DTD/sodipodi-0.dtd"
   xmlns:inkscape="http://www.inkscape.org/namespaces/inkscape"
   version="1.1"
   width="229.79633"
   height="212.59695"
   id="svg2"
   inkscape:version="0.92.2 (5c3e80d, 2017-08-06)"
   sodipodi:docname="geometry.svg">
  <metadata
     id="metadata159">
    <rdf:RDF>
      <cc:Work
         rdf:about="">
        <dc:format>image/svg+xml</dc:format>
        <dc:type
           rdf:resource="http://purl.org/dc/dcmitype/StillImage" />
        <dc:title></dc:title>
      </cc:Work>
    </rdf:RDF>
  </metadata>
  <sodipodi:namedview
     pagecolor="#ffffff"
     bordercolor="#666666"
     borderopacity="1"
     objecttolerance="10"
     gridtolerance="10"
     guidetolerance="10"
     inkscape:pageopacity="0"
     inkscape:pageshadow="2"
     inkscape:window-width="1360"
     inkscape:window-height="720"
     id="namedview157"
     showgrid="false"
     inkscape:zoom="1.1668727"
     inkscape:cx="-20.715612"
     inkscape:cy="107.68898"
     inkscape:window-x="0"
     inkscape:window-y="24"
     inkscape:window-maximized="1"
     inkscape:current-layer="svg2"
     fit-margin-top="0"
     fit-margin-left="0"
     fit-margin-right="0"
     fit-margin-bottom="0">
    <inkscape:grid
       type="xygrid"
       id="grid985"
       originx="2.8405339e-08"
       originy="5.2060932e-07" />
  </sodipodi:namedview>
  <defs
     id="defs4">
    <inkscape:perspective
       sodipodi:type="inkscape:persp3d"
       inkscape:vp_x="0 : 101.125 : 1"
       inkscape:vp_y="0 : 1000 : 0"
       inkscape:vp_z="174.35968 : 101.125 : 1"
       inkscape:persp3d-origin="87.17984 : 67.416667 : 1"
       id="perspective161" />
    <marker
       refX="0"
       refY="0"
       orient="auto"
       id="marker8196"
       style="overflow:visible">
      <path
         d="M 0,0 5,-5 -12.5,0 5,5 Z"
         transform="matrix(-0.4,0,0,-0.4,-4,0)"
         id="path7943"
         style="fill:#000000;fill-opacity:1;fill-rule:evenodd;stroke:#000000;stroke-width:1.00000003pt;stroke-opacity:1"
         inkscape:connector-curvature="0" />
    </marker>
    <marker
       refX="0"
       refY="0"
       orient="auto"
       id="marker8193"
       style="overflow:visible">
      <path
         d="M 0,0 5,-5 -12.5,0 5,5 Z"
         transform="matrix(-0.8,0,0,-0.8,-10,0)"
         id="path7937"
         style="fill:#000000;fill-opacity:1;fill-rule:evenodd;stroke:#000000;stroke-width:1.00000003pt;stroke-opacity:1"
         inkscape:connector-curvature="0" />
    </marker>
    <marker
       refX="0"
       refY="0"
       orient="auto"
       id="marker8190"
       style="overflow:visible">
      <path
         d="M 0,0 5,-5 -12.5,0 5,5 Z"
         transform="matrix(0.8,0,0,0.8,10,0)"
         id="path7934"
         style="fill:#000000;fill-opacity:1;fill-rule:evenodd;stroke:#000000;stroke-width:1.00000003pt;stroke-opacity:1"
         inkscape:connector-curvature="0" />
    </marker>
    <marker
       refX="0"
       refY="0"
       orient="auto"
       id="Arrow2Send"
       style="overflow:visible">
      <path
         d="M 8.7185878,4.0337352 -2.2072895,0.01601326 8.7185884,-4.0017078 c -1.7454984,2.3720609 -1.7354408,5.6174519 -6e-7,8.035443 z"
         transform="matrix(-0.3,0,0,-0.3,0.69,0)"
         id="path4808"
         style="font-size:12px;fill-rule:evenodd;stroke-width:0.625;stroke-linejoin:round"
         inkscape:connector-curvature="0" />
    </marker>
    <marker
       refX="0"
       refY="0"
       orient="auto"
       id="Arrow1Lend"
       style="overflow:visible">
      <path
         d="M 0,0 5,-5 -12.5,0 5,5 Z"
         transform="matrix(-0.8,0,0,-0.8,-10,0)"
         id="path4714"
         style="fill:#000000;fill-opacity:1;fill-rule:evenodd;stroke:#000000;stroke-width:1.00000003pt;stroke-opacity:1"
         inkscape:connector-curvature="0" />
    </marker>
    <marker
       refX="0"
       refY="0"
       orient="auto"
       id="Arrow1Lstart"
       style="overflow:visible">
      <path
         d="M 0,0 5,-5 -12.5,0 5,5 Z"
         transform="matrix(0.8,0,0,0.8,10,0)"
         id="path4711"
         style="fill:#000000;fill-opacity:1;fill-rule:evenodd;stroke:#000000;stroke-width:1.00000003pt;stroke-opacity:1"
         inkscape:connector-curvature="0" />
    </marker>
    <marker
       refX="0"
       refY="0"
       orient="auto"
       id="Arrow1Mstart"
       style="overflow:visible">
      <path
         d="M 0,0 5,-5 -12.5,0 5,5 Z"
         transform="matrix(0.4,0,0,0.4,4,0)"
         id="path3859"
         style="fill-rule:evenodd;stroke:#000000;stroke-width:1.00000003pt;marker-start:none"
         inkscape:connector-curvature="0" />
    </marker>
    <marker
       refX="0"
       refY="0"
       orient="auto"
       id="Arrow1Send"
       style="overflow:visible">
      <path
         d="M 0,0 5,-5 -12.5,0 5,5 Z"
         transform="matrix(-0.2,0,0,-0.2,-1.2,0)"
         id="path3621"
         style="fill-rule:evenodd;stroke:#000000;stroke-width:1.00000003pt;marker-start:none"
         inkscape:connector-curvature="0" />
    </marker>
    <marker
       refX="0"
       refY="0"
       orient="auto"
       id="Arrow1Mend"
       style="overflow:visible">
      <path
         d="M 0,0 5,-5 -12.5,0 5,5 Z"
         transform="matrix(-0.4,0,0,-0.4,-4,0)"
         id="path3615"
         style="fill-rule:evenodd;stroke:#000000;stroke-width:1.00000003pt;marker-start:none"
         inkscape:connector-curvature="0" />
    </marker>
    <clipPath
       id="pb4958c9e90">
      <rect
         width="225.34439"
         height="352.79999"
         x="73.125"
         y="44.099998"
         id="rect5390" />
    </clipPath>
    <clipPath
       id="clipPath5638">
      <rect
         width="225.34439"
         height="352.79999"
         x="73.125"
         y="44.099998"
         id="rect5640" />
    </clipPath>
    <clipPath
       id="clipPath5642">
      <rect
         width="225.34439"
         height="352.79999"
         x="73.125"
         y="44.099998"
         id="rect5644" />
    </clipPath>
    <clipPath
       id="clipPath5646">
      <rect
         width="225.34439"
         height="352.79999"
         x="73.125"
         y="44.099998"
         id="rect5648" />
    </clipPath>
    <defs
       id="defs5356">
      <path
         d="m 45.4062,27.9844 q 0,9.7656 -4.0312,15.125 -4.0156,5.375 -11.2969,5.375 -7.2187,0 -11.25,-5.375 -4.0312,-5.3594 -4.0312,-15.125 0,-9.7188 4.0312,-15.0938 4.0313,-5.37498 11.25,-5.37498 7.2813,0 11.2969,5.37498 4.0312,5.375 4.0312,15.0938 M 54.3906,6.78125 q 0,-13.95313 -6.2031,-20.76565 -6.1875,-6.8125 -18.9844,-6.8125 -4.7343,0 -8.9375,0.7031 -4.2031,0.7032 -8.1562,2.1719 v 8.7344 q 3.9531,-2.1406 7.8125,-3.1563 3.8593,-1.0312 7.8593,-1.0312 8.8438,0 13.2344,4.60938 4.3906,4.60937 4.3906,13.9375 V 9.625 Q 42.625,4.78125 38.2812,2.39062 33.9375,0 27.875,0 17.8281,0 11.6719,7.65625 5.51562,15.3281 5.51562,27.9844 q 0,12.6875 6.15628,20.3437 Q 17.8281,56 27.875,56 q 6.0625,0 10.4062,-2.3906 4.3438,-2.3906 7.125,-7.2188 v 8.2969 h 8.9844 z"
         id="BitstreamVeraSans-Roman-67"
         style="stroke-linecap:butt;stroke-linejoin:round"
         inkscape:connector-curvature="0" />
      <path
         d="M 28.6094,0 0.78125,72.9062 H 11.0781 l 23.1094,-61.375 23.1406,61.375 h 10.25 L 39.7969,0 Z"
         id="BitstreamVeraSans-Roman-56"
         style="stroke-linecap:butt;stroke-linejoin:round"
         inkscape:connector-curvature="0" />
      <path
         d="M 56.2031,29.5938 V 25.2031 H 14.8906 q 0.5938,-9.2812 5.5938,-14.1406 5,-4.85938 13.9375,-4.85938 5.1719,0 10.0312,1.26563 4.8594,1.26563 9.6563,3.81245 V 2.78125 q -4.8438,-2.046875 -9.9219,-3.125 -5.0781,-1.07813 -10.2969,-1.07813 -13.0937,0 -20.7344,7.60938 -7.64058,7.625 -7.64058,20.625 0,13.4219 7.24998,21.2969 Q 20.0156,56 32.3281,56 q 11.0313,0 17.4531,-7.1094 6.4219,-7.0937 6.4219,-19.2968 m -8.9843,2.6406 q -0.0938,7.3594 -4.125,11.75 -4.0313,4.4062 -10.6719,4.4062 -7.5157,0 -12.0313,-4.25 -4.5156,-4.25 -5.2031,-11.9687 z"
         id="BitstreamVeraSans-Roman-65"
         style="stroke-linecap:butt;stroke-linejoin:round"
         inkscape:connector-curvature="0" />
      <path
         d="m 41.1094,46.2969 q -1.5156,0.875 -3.2969,1.2812 Q 36.0312,48 33.8906,48 26.2656,48 22.1875,43.0469 18.1094,38.0938 18.1094,28.8125 V 0 H 9.07812 v 54.6875 h 9.03128 v -8.5 q 2.8437,4.9844 7.375,7.3906 Q 30.0312,56 36.5312,56 q 0.9219,0 2.0469,-0.125 1.125,-0.1094 2.4844,-0.3594 z"
         id="BitstreamVeraSans-Roman-72"
         style="stroke-linecap:butt;stroke-linejoin:round"
         inkscape:connector-curvature="0" />
      <path
         d="M 9.8125,72.9062 H 55.9062 V 64.5938 H 19.6719 V 43.0156 H 54.3906 V 34.7188 H 19.6719 V 8.29688 H 56.7812 V 0 H 9.8125 Z"
         id="BitstreamVeraSans-Roman-45"
         style="stroke-linecap:butt;stroke-linejoin:round"
         inkscape:connector-curvature="0" />
    </defs>
    <defs
       id="defs5179">
      <path
         d="M 54.8906,33.0156 V 0 h -8.9844 v 32.7188 q 0,7.7656 -3.0312,11.6093 -3.0312,3.8594 -9.0781,3.8594 -7.2813,0 -11.4844,-4.6406 -4.2031,-4.625 -4.2031,-12.6407 V 0 H 9.07812 v 54.6875 h 9.03128 v -8.5 q 3.2344,4.9375 7.5937,7.375 Q 30.0781,56 35.7969,56 q 9.4219,0 14.25,-5.8281 4.8437,-5.8281 4.8437,-17.1563"
         id="BitstreamVeraSans-Roman-6e"
         style="stroke-linecap:butt;stroke-linejoin:round"
         inkscape:connector-curvature="0" />
      <path
         d="M 52,44.1875 Q 55.375,50.25 60.0625,53.125 64.75,56 71.0938,56 q 8.5468,0 13.1874,-5.9844 4.6407,-5.9687 4.6407,-17 V 0 h -9.0313 v 32.7188 q 0,7.8593 -2.7968,11.6562 -2.7813,3.8125 -8.4844,3.8125 -6.9844,0 -11.0469,-4.6406 -4.0469,-4.625 -4.0469,-12.6407 V 0 h -9.0312 v 32.7188 q 0,7.9062 -2.7813,11.6874 -2.7812,3.7813 -8.5937,3.7813 -6.8906,0 -10.9532,-4.6563 -4.0468,-4.6562 -4.0468,-12.625 V 0 H 9.07812 v 54.6875 h 9.03128 v -8.5 q 3.0781,5.0313 7.375,7.4219 Q 29.7812,56 35.6875,56 41.6562,56 45.8281,52.9688 50,49.9531 52,44.1875"
         id="BitstreamVeraSans-Roman-6d"
         style="stroke-linecap:butt;stroke-linejoin:round"
         inkscape:connector-curvature="0" />
      <path
         d="m 50.0938,10.5938 1.5,-0.68755 Q 46.2969,-1 40.5938,-1 34.5,-1 34.5,7.09375 H 34.2969 Q 28.7031,-1 21.7969,-1 16.9062,-1 15.5,1.79688 H 15.2969 V -13.0938 q 0,-5.2031 -1.5938,-8.6093 H 5.5 q 1.59375,3.7031 1.59375,8.5 V 45 H 15.5 V 13.7969 q 0,-4.09378 2.6406,-6.5469 2.6563,-2.45312 5.9532,-2.45312 4.7031,0 8.1093,3.10937 1.3907,1.1875 1.8438,2.23435 Q 34.5,11.2031 34.5,13.5938 V 45 h 8.4062 V 11.2969 q 0,-5.70315 2,-5.70315 1.5,0 2.5469,1 1.0469,1 2.6407,4.00005"
         id="STIXGeneral-Regular-3bc"
         style="stroke-linecap:butt;stroke-linejoin:round"
         inkscape:connector-curvature="0" />
      <path
         d="M 18.1094,8.20312 V -20.7969 H 9.07812 v 75.4844 h 9.03128 v -8.2969 q 2.8437,4.875 7.1562,7.2344 Q 29.5938,56 35.5938,56 q 9.9687,0 16.1874,-7.9062 6.2344,-7.9063 6.2344,-20.7969 0,-12.8907 -6.2344,-20.81252 -6.2187,-7.90626 -16.1874,-7.90626 -6,0 -10.3282,2.375005 Q 20.9531,3.32812 18.1094,8.20312 M 48.6875,27.2969 q 0,9.9062 -4.0781,15.5469 -4.0782,5.6406 -11.2032,5.6406 -7.1406,0 -11.2187,-5.6406 -4.0781,-5.6407 -4.0781,-15.5469 0,-9.9063 4.0781,-15.5469 4.0781,-5.64062 11.2187,-5.64062 7.125,0 11.2032,5.64062 4.0781,5.6406 4.0781,15.5469"
         id="BitstreamVeraSans-Roman-70"
         style="stroke-linecap:butt;stroke-linejoin:round"
         inkscape:connector-curvature="0" />
      <path
         d="m 30.6094,48.3906 q -7.2188,0 -11.4219,-5.6406 -4.2031,-5.6406 -4.2031,-15.4531 0,-9.8125 4.1718,-15.4531 4.1876,-5.64068 11.4532,-5.64068 7.1875,0 11.375,5.65628 4.2031,5.6718 4.2031,15.4375 0,9.7187 -4.2031,15.4062 -4.1875,5.6875 -11.375,5.6875 m 0,7.6094 q 11.7187,0 18.4062,-7.625 6.7032,-7.6094 6.7032,-21.0781 0,-13.4219 -6.7032,-21.07815 -6.6875,-7.64063 -18.4062,-7.64063 -11.7656,0 -18.4375,7.64063 -6.65628,7.65625 -6.65628,21.07815 0,13.4687 6.65628,21.0781 Q 18.8438,56 30.6094,56"
         id="BitstreamVeraSans-Roman-6f"
         style="stroke-linecap:butt;stroke-linejoin:round"
         inkscape:connector-curvature="0" />
      <path
         d="M 32.1719,-5.07812 Q 28.375,-14.8438 24.75,-17.8125 21.1406,-20.7969 15.0938,-20.7969 H 7.90625 v 7.5157 h 5.28125 q 3.7031,0 5.75,1.7656 2.0625,1.74998 4.5469,8.29685 L 25.0938,0.875 2.98438,54.6875 H 12.5 L 29.5938,11.9219 46.6875,54.6875 h 9.5156 z"
         id="BitstreamVeraSans-Roman-79"
         style="stroke-linecap:butt;stroke-linejoin:round"
         inkscape:connector-curvature="0" />
      <path
         d="M 18.3125,70.2188 V 54.6875 h 18.5 v -6.9844 h -18.5 V 18.0156 q 0,-6.6875 1.8281,-8.59372 1.8282,-1.90626 7.4532,-1.90626 h 9.2187 V 0 H 27.5938 Q 17.1875,0 13.2344,3.875 9.28125,7.76562 9.28125,18.0156 V 47.7031 H 2.6875 v 6.9844 h 6.59375 v 15.5313 z"
         id="BitstreamVeraSans-Roman-74"
         style="stroke-linecap:butt;stroke-linejoin:round"
         inkscape:connector-curvature="0" />
      <path
         d="m 44.2812,53.0781 v -8.5 q -3.7968,1.9531 -7.9062,2.9219 -4.0938,0.9844 -8.5,0.9844 -6.6875,0 -10.0312,-2.0469 Q 14.5,44.3906 14.5,40.2812 q 0,-3.125 2.3906,-4.9062 2.3906,-1.7812 9.625,-3.3906 l 3.0782,-0.6875 q 9.5624,-2.0469 13.5937,-5.7813 4.0313,-3.7344 4.0313,-10.4218 0,-7.62505 -6.0313,-12.07818 -6.0313,-4.4375 -16.5781,-4.4375 -4.3906,0 -9.1563,0.85938 Q 10.6875,0.296875 5.42188,2 v 9.2812 q 4.98432,-2.5937 9.81252,-3.89058 4.8281,-1.28124 9.5781,-1.28124 6.3437,0 9.75,2.17187 3.4219,2.17185 3.4219,6.12495 0,3.6563 -2.4688,5.6094 -2.4531,1.9532 -10.8125,3.7656 l -3.125,0.7344 q -8.3437,1.75 -12.06248,5.3906 -3.70312,3.6407 -3.70312,9.9844 0,7.7188 5.4687,11.9063 Q 16.75,56 26.8125,56 q 4.9687,0 9.3594,-0.7344 4.4062,-0.7187 8.1093,-2.1875"
         id="BitstreamVeraSans-Roman-73"
         style="stroke-linecap:butt;stroke-linejoin:round"
         inkscape:connector-curvature="0" />
      <path
         d="M 8.01562,75.875 H 15.8281 Q 23.1406,64.3594 26.7812,53.3125 30.4219,42.2812 30.4219,31.3906 30.4219,20.4531 26.7812,9.375 23.1406,-1.70312 15.8281,-13.1875 H 8.01562 Q 14.5,-2 17.7031,9.0625 q 3.2031,11.0625 3.2031,22.3281 0,11.2813 -3.2031,22.2656 -3.2031,11 -9.68748,22.2188"
         id="BitstreamVeraSans-Roman-29"
         style="stroke-linecap:butt;stroke-linejoin:round"
         inkscape:connector-curvature="0" />
      <path
         d="M 31,75.875 Q 24.4688,64.6562 21.2812,53.6562 18.1094,42.6719 18.1094,31.3906 18.1094,20.125 21.3125,9.0625 24.5156,-2 31,-13.1875 H 23.1875 Q 15.875,-1.70312 12.2344,9.375 8.59375,20.4531 8.59375,31.3906 q 0,10.8906 3.60935,21.9219 3.625,11.0469 10.9844,22.5625 z"
         id="BitstreamVeraSans-Roman-28"
         style="stroke-linecap:butt;stroke-linejoin:round"
         inkscape:connector-curvature="0" />
      <path
         d="M 9.42188,54.6875 H 18.4062 V 0 H 9.42188 Z m 0,21.2969 H 18.4062 V 64.5938 H 9.42188 Z"
         id="BitstreamVeraSans-Roman-69"
         style="stroke-linecap:butt;stroke-linejoin:round"
         inkscape:connector-curvature="0" />
    </defs>
    <defs
       id="defs5239">
      <path
         d="M 10.5938,35.5 H 73.1875 V 27.2031 H 10.5938 Z"
         id="BitstreamVeraSans-Roman-2212"
         style="stroke-linecap:butt;stroke-linejoin:round"
         inkscape:connector-curvature="0" />
      <path
         d="M 10.6875,12.4062 H 21 V 0 H 10.6875 Z"
         id="BitstreamVeraSans-Roman-2e"
         style="stroke-linecap:butt;stroke-linejoin:round"
         inkscape:connector-curvature="0" />
    </defs>
    <marker
       refX="0"
       refY="0"
       orient="auto"
       id="Arrow1Mend-6"
       style="overflow:visible">
      <path
         d="M 0,0 5,-5 -12.5,0 5,5 Z"
         transform="matrix(-0.4,0,0,-0.4,-4,0)"
         id="path3615-0"
         style="fill-rule:evenodd;stroke:#000000;stroke-width:1.00000003pt;marker-start:none"
         inkscape:connector-curvature="0" />
    </marker>
    <clipPath
       id="pb4958c9e90-9">
      <rect
         width="225.34439"
         height="352.79999"
         x="73.125"
         y="44.099998"
         id="rect5390-4" />
    </clipPath>
    <clipPath
       id="pb4958c9e90-2">
      <rect
         width="225.34439"
         height="352.79999"
         x="73.125"
         y="44.099998"
         id="rect5390-7" />
    </clipPath>
    <marker
       refX="0"
       refY="0"
       orient="auto"
       id="Arrow1Mend-3"
       style="overflow:visible">
      <path
         d="M 0,0 5,-5 -12.5,0 5,5 Z"
         transform="matrix(-0.4,0,0,-0.4,-4,0)"
         id="path3615-2"
         style="fill-rule:evenodd;stroke:#000000;stroke-width:1.00000003pt;marker-start:none"
         inkscape:connector-curvature="0" />
    </marker>
    <marker
       refX="0"
       refY="0"
       orient="auto"
       id="Arrow2Mstart"
       style="overflow:visible">
      <path
         d="M 8.7185878,4.0337352 -2.2072895,0.01601326 8.7185884,-4.0017078 c -1.7454984,2.3720609 -1.7354408,5.6174519 -6e-7,8.035443 z"
         transform="scale(0.6)"
         id="path4430"
         style="font-size:12px;fill-rule:evenodd;stroke-width:0.625;stroke-linejoin:round"
         inkscape:connector-curvature="0" />
    </marker>
    <marker
       refX="0"
       refY="0"
       orient="auto"
       id="marker8209"
       style="overflow:visible">
      <path
         d="M 8.7185878,4.0337352 -2.2072895,0.01601326 8.7185884,-4.0017078 c -1.7454984,2.3720609 -1.7354408,5.6174519 -6e-7,8.035443 z"
         transform="scale(0.6)"
         id="path8211"
         style="font-size:12px;fill-rule:evenodd;stroke-width:0.625;stroke-linejoin:round"
         inkscape:connector-curvature="0" />
    </marker>
    <marker
       refX="0"
       refY="0"
       orient="auto"
       id="Arrow1Send-5"
       style="overflow:visible">
      <path
         d="M 0,0 5,-5 -12.5,0 5,5 Z"
         transform="matrix(-0.2,0,0,-0.2,-1.2,0)"
         id="path3621-3"
         style="fill-rule:evenodd;stroke:#000000;stroke-width:1.00000003pt;marker-start:none"
         inkscape:connector-curvature="0" />
    </marker>
    <marker
       refX="0"
       refY="0"
       orient="auto"
       id="Arrow2Mend-3-2"
       style="overflow:visible">
      <path
         d="M 8.7185878,4.0337352 -2.2072895,0.01601326 8.7185884,-4.0017078 c -1.7454984,2.3720609 -1.7354408,5.6174519 -6e-7,8.035443 z"
         transform="scale(-0.6)"
         id="path4433-3-7"
         style="font-size:12px;fill-rule:evenodd;stroke-width:0.625;stroke-linejoin:round"
         inkscape:connector-curvature="0" />
    </marker>
    <marker
       refX="0"
       refY="0"
       orient="auto"
       id="Arrow2Mend-6"
       style="overflow:visible">
      <path
         d="M 8.7185878,4.0337352 -2.2072895,0.01601326 8.7185884,-4.0017078 c -1.7454984,2.3720609 -1.7354408,5.6174519 -6e-7,8.035443 z"
         transform="scale(-0.6)"
         id="path4433-06"
         style="font-size:12px;fill-rule:evenodd;stroke-width:0.625;stroke-linejoin:round"
         inkscape:connector-curvature="0" />
    </marker>
    <marker
       refX="0"
       refY="0"
       orient="auto"
       id="marker5390-2"
       style="overflow:visible">
      <path
         d="M 8.7185878,4.0337352 -2.2072895,0.01601326 8.7185884,-4.0017078 c -1.7454984,2.3720609 -1.7354408,5.6174519 -6e-7,8.035443 z"
         transform="scale(-0.6)"
         id="path5392-9"
         style="fill:#000000;fill-opacity:1;fill-rule:evenodd;stroke:#000000;stroke-width:0.625;stroke-linejoin:round;stroke-opacity:1"
         inkscape:connector-curvature="0" />
    </marker>
    <marker
       refX="0"
       refY="0"
       orient="auto"
       id="Arrow2Mend-5"
       style="overflow:visible">
      <path
         d="M 8.7185878,4.0337352 -2.2072895,0.01601326 8.7185884,-4.0017078 c -1.7454984,2.3720609 -1.7354408,5.6174519 -6e-7,8.035443 z"
         transform="scale(-0.6)"
         id="path4433-35"
         style="font-size:12px;fill-rule:evenodd;stroke-width:0.625;stroke-linejoin:round"
         inkscape:connector-curvature="0" />
    </marker>
    <clipPath
       id="p163f6fb47a">
      <rect
         width="160.53389"
         height="155.18571"
         x="73.125"
         y="241.71428"
         id="rect7759" />
    </clipPath>
    <clipPath
       id="pb4958c9e90-3-3">
      <rect
         width="225.34439"
         height="352.79999"
         x="73.125"
         y="44.099998"
         id="rect5390-69-6" />
    </clipPath>
    <clipPath
       id="clipPath8674">
      <rect
         width="160.53389"
         height="155.18571"
         x="73.125"
         y="241.71428"
         id="rect8676" />
    </clipPath>
    <clipPath
       id="clipPath8678">
      <rect
         width="160.53389"
         height="155.18571"
         x="73.125"
         y="241.71428"
         id="rect8680" />
    </clipPath>
    <marker
       refX="0"
       refY="0"
       orient="auto"
       id="Arrow1Mend-36"
       style="overflow:visible">
      <path
         inkscape:connector-curvature="0"
         d="M 0,0 5,-5 -12.5,0 5,5 Z"
         transform="matrix(-0.4,0,0,-0.4,-4,0)"
         id="path3615-7"
         style="fill-rule:evenodd;stroke:#000000;stroke-width:1.00000003pt;marker-start:none" />
    </marker>
  </defs>
  <rect
     style="color:#000000;display:inline;overflow:visible;visibility:visible;fill:#acd1ed;fill-opacity:1;fill-rule:nonzero;stroke:none;stroke-width:1;marker:none;enable-background:accumulate"
     id="rect7926"
     y="80.130341"
     x="72.478813"
     height="39.533897"
     width="131.77966" />
  <rect
     style="color:#000000;display:inline;overflow:visible;visibility:visible;fill:none;stroke:#000000;stroke-width:2.00314951;stroke-linecap:square;stroke-linejoin:miter;stroke-miterlimit:4;stroke-dasharray:none;stroke-dashoffset:0;stroke-opacity:1;marker:none;enable-background:accumulate"
     id="rect2820"
     y="22.596956"
     x="73.645111"
     height="155.43855"
     width="131.77966" />
  <path
     style="fill:none;stroke:#000000;stroke-width:1.31779659;stroke-linecap:butt;stroke-linejoin:miter;stroke-miterlimit:4;stroke-dasharray:3.9533898, 3.9533898;stroke-dashoffset:0;stroke-opacity:1"
     id="path3597"
     d="M 73.645112,99.897324 H 205.42478"
     inkscape:connector-curvature="0" />
  <path
     style="fill:none;stroke:#000000;stroke-width:1.31779659px;stroke-linecap:butt;stroke-linejoin:miter;stroke-opacity:1;marker-end:url(#Arrow1Mend)"
     id="path3601"
     d="M 73.114975,192.53131 H 224.66155"
     inkscape:connector-curvature="0" />
  <path
     style="fill:none;stroke:#000000;stroke-width:1.31779659px;stroke-linecap:butt;stroke-linejoin:miter;stroke-opacity:1"
     id="path4051"
     d="m 73.114975,188.57792 v 7.90678"
     inkscape:connector-curvature="0" />
  <path
     style="fill:none;stroke:#000000;stroke-width:1.31779659px;stroke-linecap:butt;stroke-linejoin:miter;stroke-opacity:1;marker-end:url(#Arrow1Mend)"
     id="path4053"
     d="M 59.891539,178.03554 V 2.5969572"
     inkscape:connector-curvature="0"
     sodipodi:nodetypes="cc" />
  <path
     style="fill:none;stroke:#000000;stroke-width:1.31779659px;stroke-linecap:butt;stroke-linejoin:miter;stroke-opacity:1"
     id="path4055"
     d="m 55.93815,178.03554 h 7.906779"
     inkscape:connector-curvature="0" />
  <path
     style="fill:none;stroke:#000000;stroke-width:1.31779659px;stroke-linecap:butt;stroke-linejoin:miter;stroke-opacity:1"
     id="path4051-1"
     d="m 204.8946,188.57792 v 7.90678"
     inkscape:connector-curvature="0" />
  <path
     style="fill:none;stroke:#000000;stroke-width:1.31779659px;stroke-linecap:butt;stroke-linejoin:miter;stroke-opacity:1"
     id="path4055-7"
     d="m 55.93815,23.188094 h 7.906779"
     inkscape:connector-curvature="0" />
  <path
     style="fill:none;stroke:#000000;stroke-width:1.31779659px;stroke-linecap:butt;stroke-linejoin:miter;stroke-opacity:1"
     id="path4055-7-3"
     d="m 55.93815,99.897324 h 7.906779"
     inkscape:connector-curvature="0" />
  <text
     style="font-style:normal;font-weight:normal;font-size:13.17796612px;line-height:0%;font-family:'Bitstream Vera Sans';fill:#000000;fill-opacity:1;stroke:none"
     xml:space="preserve"
     id="text4307"
     y="209.85583"
     x="68.913422"><tspan
       id="tspan4309"
       y="209.85583"
       x="68.913422">0</tspan></text>
  <text
     style="font-style:normal;font-weight:normal;font-size:13.17796612px;line-height:0%;font-family:'Bitstream Vera Sans';fill:#000000;fill-opacity:1;stroke:none"
     xml:space="preserve"
     id="text4311"
     y="209.85583"
     x="178.72527"><tspan
       id="tspan4313"
       y="209.85583"
       x="178.72527">L=3 µm</tspan></text>
  <text
     style="font-style:normal;font-weight:normal;font-size:13.17796612px;line-height:0%;font-family:'Bitstream Vera Sans';fill:#000000;fill-opacity:1;stroke:none"
     xml:space="preserve"
     id="text4311-1"
     y="26.823595"
     x="-0.7271046"><tspan
       id="tspan4313-6"
       y="26.823595"
       x="-0.7271046">d=3 µm</tspan></text>
  <text
     style="font-style:normal;font-weight:normal;font-size:13.17796612px;line-height:0%;font-family:'Bitstream Vera Sans';fill:#000000;fill-opacity:1;stroke:none"
     xml:space="preserve"
     id="text4342"
     y="178.50781"
     x="43.864353"><tspan
       id="tspan4344"
       y="178.50781"
       x="43.864353">0</tspan></text>
  <text
     style="font-style:normal;font-weight:normal;font-size:13.17796612px;line-height:0%;font-family:'Bitstream Vera Sans';fill:#000000;fill-opacity:1;stroke:none"
     xml:space="preserve"
     id="text4311-0"
     y="103.41699"
     x="6.1192603"><tspan
       id="tspan4313-5"
       y="103.41699"
       x="6.1192603">2.5 µm</tspan></text>
  <g
     id="g4365"
     transform="matrix(1.3177966,0,0,1.3177966,-27.696345,-836.02583)">
    <text
       style="font-style:normal;font-weight:normal;font-size:10px;line-height:0%;font-family:'Bitstream Vera Sans';fill:#000000;fill-opacity:1;stroke:none"
       xml:space="preserve"
       id="text4357"
       y="746.50507"
       x="22.714287"><tspan
         id="tspan4359"
         y="746.50507"
         x="22.714287">n -layer</tspan></text>
    <text
       style="font-style:normal;font-weight:normal;font-size:10px;line-height:0%;font-family:'Bitstream Vera Sans';fill:#000000;fill-opacity:1;stroke:none"
       xml:space="preserve"
       id="text4361"
       transform="translate(0,768.89763)"
       y="-27.249718"
       x="25.714287"><tspan
         id="tspan4363"
         y="-27.249718"
         x="25.714287">+</tspan></text>
  </g>
  <path
     style="fill:none;stroke:#000000;stroke-width:1.31779659px;stroke-linecap:butt;stroke-linejoin:miter;stroke-opacity:1;marker-end:url(#Arrow1Send)"
     id="path4371"
     d="M 56.337313,143.95088 H 70.787604"
     inkscape:connector-curvature="0" />
  <text
     style="font-style:normal;font-weight:normal;font-size:13.17796612px;line-height:0%;font-family:'Bitstream Vera Sans';fill:#000000;fill-opacity:1;stroke:none"
     xml:space="preserve"
     id="text4561"
     y="34.836727"
     x="156.94868"><tspan
       id="tspan4563"
       y="34.836727"
       x="156.94868">p-type</tspan></text>
  <text
     style="font-style:normal;font-weight:normal;font-size:13.17796612px;line-height:0%;font-family:'Bitstream Vera Sans';fill:#000000;fill-opacity:1;stroke:none"
     xml:space="preserve"
     id="text4565"
     y="75.798279"
     x="98.232384"><tspan
       id="tspan4567"
       y="75.798279"
       x="98.232384">grain boundary</tspan></text>
  <text
     style="font-style:normal;font-weight:normal;font-size:13.17796612px;line-height:0%;font-family:'Bitstream Vera Sans';fill:#000000;fill-opacity:1;stroke:none"
     xml:space="preserve"
     id="text4569"
     y="188.57121"
     x="215.97885"><tspan
       id="tspan4571"
       y="188.57121"
       x="215.97885">x</tspan></text>
  <text
     style="font-style:normal;font-weight:normal;font-size:13.17796612px;line-height:0%;font-family:'Bitstream Vera Sans';fill:#000000;fill-opacity:1;stroke:none"
     xml:space="preserve"
     id="text4573"
     y="10.150622"
     x="66.46714"><tspan
       id="tspan4575"
       y="10.150622"
       x="66.46714">y</tspan></text>
  <text
     style="font-style:normal;font-weight:normal;font-size:13.17796612px;line-height:0%;font-family:'Bitstream Vera Sans';fill:#000000;fill-opacity:1;stroke:none"
     xml:space="preserve"
     id="text7319"
     y="141.62419"
     x="365.12381"><tspan
       id="tspan7321"
       y="141.62419"
       x="365.12381" /></text>
  <path
     style="fill:none;stroke:#000000;stroke-width:1.31779659px;stroke-linecap:butt;stroke-linejoin:miter;stroke-opacity:1"
     id="path3599"
     d="M 80,22.596957 80.234095,178.03554"
     inkscape:connector-curvature="0"
     sodipodi:nodetypes="cc" />
  <text
     style="font-style:normal;font-weight:normal;font-size:13.17796612px;line-height:0%;font-family:'Bitstream Vera Sans';fill:#000000;fill-opacity:1;stroke:none"
     xml:space="preserve"
     id="text4561-6"
     y="169.3726"
     x="104.22106"><tspan
       id="tspan4563-7"
       y="169.3726"
       x="104.22106">junction</tspan></text>
  <path
     style="fill:none;stroke:#000000;stroke-width:1.31779659px;stroke-linecap:butt;stroke-linejoin:miter;stroke-opacity:1;marker-end:url(#Arrow1Send-5)"
     id="path4371-5"
     d="M 101.8348,164.99015 H 87.384506"
     inkscape:connector-curvature="0" />
  <g
     style="stroke-linecap:butt;stroke-linejoin:round"
     id="g7576"
     transform="matrix(0.12683792,0,0,-0.12683792,578.09638,222.71312)">
    <use
       xlink:href="#BitstreamVeraSans-Roman-70-8"
       height="205.59766"
       width="369.7424"
       y="0"
       x="0"
       style="stroke-linecap:butt;stroke-linejoin:round"
       id="use7578"
       transform="translate(0,0.015625)" />
    <use
       xlink:href="#BitstreamVeraSans-Roman-6f-5"
       height="205.59766"
       width="369.7424"
       y="0"
       x="0"
       style="stroke-linecap:butt;stroke-linejoin:round"
       id="use7580"
       transform="translate(63.476562,0.015625)" />
    <use
       xlink:href="#BitstreamVeraSans-Roman-73-4"
       height="205.59766"
       width="369.7424"
       y="0"
       x="0"
       style="stroke-linecap:butt;stroke-linejoin:round"
       id="use7582"
       transform="translate(124.6582,0.015625)" />
    <use
       xlink:href="#BitstreamVeraSans-Roman-69-25"
       height="205.59766"
       width="369.7424"
       y="0"
       x="0"
       style="stroke-linecap:butt;stroke-linejoin:round"
       id="use7584"
       transform="translate(176.75781,0.015625)" />
    <use
       xlink:href="#BitstreamVeraSans-Roman-74-0"
       height="205.59766"
       width="369.7424"
       y="0"
       x="0"
       style="stroke-linecap:butt;stroke-linejoin:round"
       id="use7586"
       transform="translate(204.54102,0.015625)" />
    <use
       xlink:href="#BitstreamVeraSans-Roman-69-25"
       height="205.59766"
       width="369.7424"
       y="0"
       x="0"
       style="stroke-linecap:butt;stroke-linejoin:round"
       id="use7588"
       transform="translate(243.75,0.015625)" />
    <use
       xlink:href="#BitstreamVeraSans-Roman-6f-5"
       height="205.59766"
       width="369.7424"
       y="0"
       x="0"
       style="stroke-linecap:butt;stroke-linejoin:round"
       id="use7590"
       transform="translate(271.5332,0.015625)" />
    <use
       xlink:href="#BitstreamVeraSans-Roman-6e-4"
       height="205.59766"
       width="369.7424"
       y="0"
       x="0"
       style="stroke-linecap:butt;stroke-linejoin:round"
       id="use7592"
       transform="translate(332.71484,0.015625)" />
    <use
       xlink:href="#BitstreamVeraSans-Roman-79-3"
       height="205.59766"
       width="369.7424"
       y="0"
       x="0"
       style="stroke-linecap:butt;stroke-linejoin:round"
       id="use7594"
       transform="translate(425.31738,0.015625)" />
    <use
       xlink:href="#BitstreamVeraSans-Roman-28-7"
       height="205.59766"
       width="369.7424"
       y="0"
       x="0"
       style="stroke-linecap:butt;stroke-linejoin:round"
       id="use7596"
       transform="translate(513.7207,0.015625)" />
    <use
       xlink:href="#STIXGeneral-Regular-3bc-7"
       height="205.59766"
       width="369.7424"
       y="0"
       x="0"
       style="stroke-linecap:butt;stroke-linejoin:round"
       id="use7598"
       transform="translate(552.73437,0.015625)" />
    <use
       xlink:href="#BitstreamVeraSans-Roman-6d-74"
       height="205.59766"
       width="369.7424"
       y="0"
       x="0"
       style="stroke-linecap:butt;stroke-linejoin:round"
       id="use7600"
       transform="translate(605.53436,0.015625)" />
    <use
       xlink:href="#BitstreamVeraSans-Roman-29-4"
       height="205.59766"
       width="369.7424"
       y="0"
       x="0"
       style="stroke-linecap:butt;stroke-linejoin:round"
       id="use7602"
       transform="translate(702.94647,0.015625)" />
  </g>
  <g
     style="stroke-linecap:butt;stroke-linejoin:round"
     id="g7726"
     transform="matrix(0,-0.12683792,-0.12683792,0,504.25038,176.12545)">
    <use
       xlink:href="#BitstreamVeraSans-Roman-65-4"
       height="205.59766"
       width="369.7424"
       y="0"
       x="0"
       style="stroke-linecap:butt;stroke-linejoin:round"
       id="use7728"
       transform="translate(0,0.125)" />
    <use
       xlink:href="#BitstreamVeraSans-Roman-6e-4"
       height="205.59766"
       width="369.7424"
       y="0"
       x="0"
       style="stroke-linecap:butt;stroke-linejoin:round"
       id="use7730"
       transform="translate(61.523437,0.125)" />
    <use
       xlink:href="#BitstreamVeraSans-Roman-65-4"
       height="205.59766"
       width="369.7424"
       y="0"
       x="0"
       style="stroke-linecap:butt;stroke-linejoin:round"
       id="use7732"
       transform="translate(124.90234,0.125)" />
    <use
       xlink:href="#BitstreamVeraSans-Roman-72-95"
       height="205.59766"
       width="369.7424"
       y="0"
       x="0"
       style="stroke-linecap:butt;stroke-linejoin:round"
       id="use7734"
       transform="translate(186.42578,0.125)" />
    <use
       xlink:href="#BitstreamVeraSans-Roman-67-66"
       height="205.59766"
       width="369.7424"
       y="0"
       x="0"
       style="stroke-linecap:butt;stroke-linejoin:round"
       id="use7736"
       transform="translate(227.53906,0.125)" />
    <use
       xlink:href="#BitstreamVeraSans-Roman-79-3"
       height="205.59766"
       width="369.7424"
       y="0"
       x="0"
       style="stroke-linecap:butt;stroke-linejoin:round"
       id="use7738"
       transform="translate(291.01562,0.125)" />
    <use
       xlink:href="#BitstreamVeraSans-Roman-45-4"
       height="205.59766"
       width="369.7424"
       y="0"
       x="0"
       style="stroke-linecap:butt;stroke-linejoin:round"
       id="use7740"
       transform="translate(379.41895,0.125)" />
    <use
       xlink:href="#BitstreamVeraSans-Roman-2d-8"
       height="205.59766"
       width="369.7424"
       y="0"
       x="0"
       style="stroke-linecap:butt;stroke-linejoin:round"
       id="use7742"
       transform="translate(442.60254,0.125)" />
    <use
       xlink:href="#BitstreamVeraSans-Roman-45-4"
       height="205.59766"
       width="369.7424"
       y="0"
       x="0"
       style="stroke-linecap:butt;stroke-linejoin:round"
       id="use7744"
       transform="translate(478.68652,0.125)" />
    <use
       xlink:href="#BitstreamVeraSans-Roman-56-0"
       height="205.59766"
       width="369.7424"
       y="0"
       x="0"
       style="stroke-linecap:butt;stroke-linejoin:round"
       id="use7746"
       transform="matrix(0.7,0,0,0.7,541.87012,-31.375)" />
    <use
       xlink:href="#BitstreamVeraSans-Roman-28-7"
       height="205.59766"
       width="369.7424"
       y="0"
       x="0"
       style="stroke-linecap:butt;stroke-linejoin:round"
       id="use7748"
       transform="translate(639.50195,0.125)" />
    <use
       xlink:href="#BitstreamVeraSans-Roman-65-4"
       height="205.59766"
       width="369.7424"
       y="0"
       x="0"
       style="stroke-linecap:butt;stroke-linejoin:round"
       id="use7750"
       transform="translate(678.51562,0.125)" />
    <use
       xlink:href="#BitstreamVeraSans-Roman-56-0"
       height="205.59766"
       width="369.7424"
       y="0"
       x="0"
       style="stroke-linecap:butt;stroke-linejoin:round"
       id="use7752"
       transform="translate(740.03906,0.125)" />
    <use
       xlink:href="#BitstreamVeraSans-Roman-29-4"
       height="205.59766"
       width="369.7424"
       y="0"
       x="0"
       style="stroke-linecap:butt;stroke-linejoin:round"
       id="use7754"
       transform="translate(808.44727,0.125)" />
  </g>
</svg>
